<?xml version="1.0" standalone="no"?>
<!DOCTYPE svg PUBLIC "-//W3C//DTD SVG 20010904//EN"
 "http://www.w3.org/TR/2001/REC-SVG-20010904/DTD/svg10.dtd">
<svg version="1.0" xmlns="http://www.w3.org/2000/svg"
 width="300.000000pt" height="250.000000pt" viewBox="0 0 300.000000 250.000000"
 preserveAspectRatio="xMidYMid meet">

<g transform="translate(0.000000,250.000000) scale(0.100000,-0.100000)"
fill="#422709" stroke="none">
<path d="M1280 2485 c-175 -35 -318 -111 -437 -230 -70 -71 -89 -98 -137 -196
-69 -143 -96 -247 -103 -409 -6 -145 11 -278 52 -410 72 -228 216 -400 336
-400 21 0 70 18 126 46 109 55 132 55 214 -7 65 -49 108 -69 149 -69 39 0 106
34 120 61 29 53 128 76 191 44 16 -9 73 -54 127 -102 100 -88 169 -129 201
-118 55 17 143 164 199 331 44 131 61 219 74 394 10 134 9 173 -5 290 -17 130
-48 284 -60 297 -4 3 -27 7 -52 8 -34 1 -52 8 -75 30 l-29 28 -65 -18 c-39
-11 -78 -15 -97 -11 -45 9 -95 50 -119 97 -20 38 -21 39 -76 39 -120 0 -202
82 -188 189 6 43 4 48 -21 61 -15 8 -33 27 -41 42 -14 28 -15 28 -117 27 -56
0 -131 -7 -167 -14z m184 -148 c13 -13 29 -48 36 -78 20 -87 52 -134 112 -163
29 -13 78 -30 108 -36 63 -13 71 -18 123 -83 21 -26 52 -54 67 -62 31 -16 97
-18 171 -6 63 10 84 0 113 -56 31 -63 43 -109 55 -218 26 -227 -50 -613 -139
-706 -20 -22 -43 -39 -51 -39 -7 0 -50 38 -95 84 -96 99 -113 111 -179 126
-69 16 -131 -1 -206 -57 -101 -74 -122 -75 -203 -8 -94 76 -150 82 -262 25
-43 -22 -92 -40 -108 -40 -81 0 -214 243 -247 451 -26 169 9 392 87 540 106
202 328 342 552 348 33 1 49 -5 66 -22z"/>
<path d="M946 1791 c-71 -74 -75 -260 -7 -342 48 -56 114 -37 159 46 24 44 23
198 -2 245 -45 86 -99 105 -150 51z"/>
<path d="M1672 1800 c-45 -42 -57 -79 -57 -180 0 -105 18 -158 62 -187 110
-72 206 142 137 306 -33 78 -95 105 -142 61z"/>
<path d="M508 660 c-26 -27 -30 -36 -25 -68 13 -81 109 -111 168 -53 37 37 38
79 3 120 -22 26 -33 31 -71 31 -36 0 -50 -6 -75 -30z"/>
<path d="M105 582 c-53 -26 -85 -61 -92 -105 -5 -33 -3 -38 21 -47 45 -17 100
-12 119 10 17 20 52 26 74 12 7 -4 16 -23 19 -40 6 -32 6 -32 -20 -22 -70 26
-169 -5 -206 -64 -14 -24 -20 -50 -20 -93 0 -70 24 -115 80 -145 46 -25 129
-20 169 10 28 21 29 21 46 2 36 -40 128 -38 145 3 6 15 9 17 9 6 1 -25 22 -29
141 -29 121 0 132 5 132 65 0 41 -16 65 -43 65 -17 0 -19 8 -19 68 0 66 1 68
30 79 28 10 30 15 30 62 0 65 -11 71 -135 71 -124 0 -135 -6 -135 -71 0 -47 2
-52 30 -62 29 -11 30 -13 30 -79 0 -61 -2 -68 -19 -68 -11 0 -27 -10 -36 -22
-15 -21 -16 -21 -13 -3 2 14 -3 21 -19 23 -22 3 -23 6 -23 131 0 112 -3 132
-23 171 -30 60 -71 82 -161 87 -55 3 -80 0 -111 -15z m145 -318 c23 -27 1 -68
-38 -72 -18 -2 -40 2 -48 9 -17 14 -18 51 -2 67 17 17 73 15 88 -4z"/>
<path d="M840 582 c-26 -12 -43 -33 -65 -77 -27 -55 -30 -69 -30 -160 0 -122
20 -182 73 -223 28 -21 46 -27 86 -27 28 0 59 4 68 9 15 7 17 1 20 -46 l3 -53
67 -3 c63 -3 68 -1 73 20 3 13 4 145 3 293 l-3 270 -67 3 c-44 2 -68 -1 -68
-8 0 -6 -11 -5 -30 5 -38 20 -87 19 -130 -3z m142 -144 c16 -30 16 -156 0
-185 -15 -27 -53 -30 -73 -6 -19 22 -19 174 0 196 20 24 58 21 73 -5z"/>
<path d="M1614 589 c-94 -27 -151 -179 -124 -328 23 -125 59 -166 164 -183
161 -27 242 57 240 252 -1 144 -32 216 -108 251 -44 20 -120 23 -172 8z m113
-159 c7 -14 13 -56 13 -95 0 -78 -15 -119 -46 -123 -37 -5 -49 24 -49 123 0
99 12 128 49 123 11 -2 26 -14 33 -28z"/>
<path d="M1960 587 l-25 -13 -3 -233 c-2 -168 1 -237 9 -248 9 -10 30 -13 73
-11 l61 3 6 172 c6 183 11 203 55 203 37 0 44 -34 44 -204 0 -105 4 -156 12
-164 7 -7 36 -12 65 -12 81 0 88 15 79 191 -6 121 -5 145 9 166 12 18 24 23
43 21 25 -3 28 -8 34 -58 3 -30 6 -109 7 -175 1 -80 5 -125 13 -133 14 -14
106 -16 126 -3 10 6 13 51 10 209 -3 185 -5 203 -24 229 -31 42 -83 73 -121
73 -42 0 -99 -25 -117 -52 -14 -20 -14 -20 -25 0 -15 29 -92 56 -137 49 -21
-4 -51 -19 -67 -34 -17 -15 -27 -23 -24 -17 18 33 -59 64 -103 41z"/>
<path d="M2720 578 c-49 -25 -84 -70 -100 -127 -15 -54 -12 -190 5 -248 40
-136 225 -178 330 -76 33 32 53 87 42 117 -10 26 -127 37 -127 12 0 -20 -28
-46 -48 -46 -29 0 -43 15 -52 54 l-8 36 103 0 c57 0 110 3 119 6 12 5 16 20
16 63 0 77 -23 151 -58 184 -53 51 -149 62 -222 25z m137 -138 c12 -25 12 -25
-33 -28 -55 -4 -61 0 -46 34 16 34 61 30 79 -6z"/>
<path d="M1264 571 c-34 -21 -64 -83 -64 -133 0 -17 -7 -36 -16 -42 -8 -7 -18
-30 -21 -53 -4 -34 -2 -44 16 -59 18 -16 21 -29 21 -99 0 -50 5 -86 12 -93 16
-16 110 -16 126 0 7 7 12 44 12 95 l0 83 45 0 c50 0 65 16 65 72 0 45 -15 58
-67 58 -29 0 -43 4 -43 13 0 28 26 46 70 49 l45 3 0 60 0 60 -85 3 c-69 2 -91
-1 -116 -17z"/>
</g>
</svg>
