<?xml version="1.0" standalone="no"?>
<!DOCTYPE svg PUBLIC "-//W3C//DTD SVG 20010904//EN"
 "http://www.w3.org/TR/2001/REC-SVG-20010904/DTD/svg10.dtd">
<svg version="1.0" xmlns="http://www.w3.org/2000/svg"
 width="632.000000pt" height="395.000000pt" viewBox="0 0 632.000000 395.000000"
 preserveAspectRatio="xMidYMid meet">

<g transform="translate(0.000000,395.000000) scale(0.100000,-0.100000)"
fill="#000000" stroke="none">
<path d="M837 2982 l-27 -3 2 -1037 3 -1037 58 -3 57 -3 0 1043 0 1043 -33 0
c-17 0 -44 -1 -60 -3z"/>
<path d="M970 1945 l0 -1045 30 0 30 0 0 1045 0 1045 -30 0 -30 0 0 -1045z"/>
<path d="M1140 2525 l0 -466 108 3 107 3 0 460 0 460 -107 3 -108 3 0 -466z"/>
<path d="M1437 2983 c-4 -3 -7 -213 -7 -465 l0 -458 30 0 30 0 0 465 0 465
-23 0 c-13 0 -27 -3 -30 -7z"/>
<path d="M1577 2983 c-16 -4 -17 -32 -15 -461 l3 -457 58 -3 57 -3 0 466 0
465 -42 -1 c-24 -1 -51 -3 -61 -6z"/>
<path d="M1817 2983 c-16 -4 -17 -32 -15 -461 l3 -457 33 -3 32 -3 -2 463 c-3
496 -1 474 -51 461z"/>
<path d="M1906 2963 c-4 -16 -5 -224 -4 -463 l3 -435 23 -3 22 -3 0 465 c0
453 -1 466 -19 466 -13 0 -21 -9 -25 -27z"/>
<path d="M2010 2525 l0 -465 55 0 55 0 0 465 0 465 -55 0 -55 0 0 -465z"/>
<path d="M2160 2523 l0 -463 30 0 30 0 0 463 0 463 -30 0 -30 0 0 -463z"/>
<path d="M2330 2525 l0 -466 108 3 107 3 0 460 0 460 -107 3 -108 3 0 -466z"/>
<path d="M2625 2978 c-3 -7 -4 -215 -3 -463 l3 -450 30 0 30 0 0 460 0 460
-28 3 c-16 2 -29 -2 -32 -10z"/>
<path d="M2750 2523 l0 -463 60 0 60 0 0 460 c0 431 -1 460 -17 461 -10 1 -37
2 -60 3 l-43 1 0 -462z"/>
<path d="M3000 2523 l0 -463 30 0 30 0 -2 462 -3 461 -27 1 -28 2 0 -463z"/>
<path d="M3100 2523 c0 -456 0 -463 20 -463 20 0 20 7 20 463 0 456 0 463 -20
463 -20 0 -20 -7 -20 -463z"/>
<path d="M3240 2523 l0 -464 58 3 57 3 0 460 0 460 -57 1 -58 0 0 -463z"/>
<path d="M3486 2983 c-3 -3 -6 -213 -6 -465 l0 -459 33 3 c17 2 31 6 30 11 -2
4 -3 211 -3 460 l0 453 -24 2 c-13 1 -26 -1 -30 -5z"/>
<path d="M3580 2523 l0 -464 23 3 22 3 0 460 0 460 -22 1 -23 1 0 -464z"/>
<path d="M3687 2984 c-4 -4 -7 -214 -7 -466 l0 -458 60 0 60 0 -2 463 -3 462
-50 3 c-28 2 -54 0 -58 -4z"/>
<path d="M3835 2978 c-3 -7 -4 -215 -3 -463 l3 -450 30 0 30 0 0 459 0 459
-28 4 c-16 2 -29 -2 -32 -9z"/>
<path d="M4000 2523 l0 -463 30 0 30 0 0 459 0 459 -30 4 -30 5 0 -464z"/>
<path d="M4100 2980 c0 -3 -1 -210 -2 -460 l-3 -455 23 -3 22 -3 0 463 c0 457
0 464 -20 464 -11 0 -20 -3 -20 -6z"/>
<path d="M4200 2524 l0 -464 55 0 55 0 0 464 0 463 -55 1 -55 0 0 -464z"/>
<path d="M4350 2525 l0 -465 30 0 30 0 0 465 0 465 -30 0 -30 0 0 -465z"/>
<path d="M4480 2525 l0 -466 108 3 107 3 3 458 c1 251 -1 457 -5 458 -5 0 -54
3 -110 5 l-103 5 0 -466z"/>
<path d="M4775 2978 c-3 -7 -4 -215 -3 -463 l3 -450 30 0 30 0 0 460 0 460
-28 3 c-16 2 -29 -2 -32 -10z"/>
<path d="M4904 2976 c-2 -6 -3 -213 -2 -461 l3 -450 58 -3 57 -3 0 463 0 463
-56 1 c-31 0 -58 -5 -60 -10z"/>
<path d="M5150 2525 l0 -465 30 0 30 0 0 463 0 463 -30 2 -30 2 0 -465z"/>
<path d="M5250 2525 c0 -458 0 -465 20 -465 20 0 20 7 20 465 0 458 0 465 -20
465 -20 0 -20 -7 -20 -465z"/>
<path d="M5390 1945 l0 -1045 55 0 55 0 0 1043 0 1042 -55 3 -55 2 0 -1045z"/>
<path d="M1150 1470 l0 -530 243 0 c274 0 351 11 426 59 81 53 120 132 120
246 0 47 -5 83 -18 110 -21 47 -86 108 -137 130 l-36 15 44 33 c94 72 125 195
74 302 -63 134 -162 165 -528 165 l-188 0 0 -530z m526 384 c57 -27 79 -68 79
-147 0 -66 -1 -70 -37 -102 -51 -47 -90 -55 -275 -55 l-163 0 0 158 c0 87 3
162 8 167 4 4 85 5 181 1 128 -5 182 -10 207 -22z m-26 -434 c60 -11 113 -47
135 -90 8 -16 15 -55 15 -87 0 -81 -23 -121 -90 -155 -53 -28 -56 -28 -242
-28 l-188 0 0 185 0 185 159 0 c87 0 182 -5 211 -10z"/>
<path d="M2950 1470 l0 -530 60 0 60 0 0 530 0 530 -60 0 -60 0 0 -530z"/>
<path d="M4183 1927 l-52 -31 -3 -96 -3 -95 -47 -3 -48 -3 0 -45 0 -44 49 0
50 0 3 -294 c3 -280 4 -296 24 -323 32 -43 80 -63 154 -63 88 0 95 6 84 66 -9
49 -9 49 -49 50 -71 2 -82 14 -90 96 -3 40 -5 161 -3 268 l3 195 63 3 62 3 0
44 0 44 -62 3 -63 3 -3 128 c-1 70 -6 127 -10 127 -4 -1 -30 -15 -59 -33z"/>
<path d="M2332 1705 c-162 -44 -252 -181 -252 -385 0 -220 105 -361 291 -391
179 -29 350 68 399 228 14 46 20 93 20 163 0 132 -24 210 -86 279 -56 62 -111
95 -182 110 -69 14 -125 13 -190 -4z m215 -121 c82 -47 115 -123 114 -264 0
-144 -32 -216 -118 -267 -37 -21 -59 -27 -107 -27 -68 1 -107 17 -153 63 -57
57 -68 93 -68 231 0 115 2 130 26 175 58 114 195 154 306 89z"/>
<path d="M3493 1705 c-172 -48 -262 -199 -250 -420 9 -165 75 -274 199 -330
54 -24 75 -28 158 -28 83 0 104 4 158 28 67 30 118 79 152 144 25 50 25 71 1
71 -10 0 -38 3 -62 6 -44 6 -44 6 -62 -35 -55 -125 -222 -155 -331 -60 -47 42
-86 122 -86 179 l0 30 285 0 285 0 0 50 c0 159 -79 296 -203 350 -63 28 -174
35 -244 15z m216 -122 c48 -30 84 -89 96 -156 l6 -37 -218 2 -218 3 3 30 c5
47 41 114 78 143 73 58 173 64 253 15z"/>
<path d="M4744 1710 c-101 -21 -196 -96 -234 -184 -63 -142 -47 -362 33 -468
39 -51 113 -103 170 -119 23 -7 79 -12 123 -12 70 0 91 4 146 30 121 57 179
142 197 291 33 267 -96 456 -322 467 -39 2 -91 0 -113 -5z m134 -101 c65 -13
122 -63 153 -131 19 -43 23 -70 23 -148 1 -140 -29 -217 -103 -267 -91 -61
-192 -52 -271 25 -58 57 -80 120 -80 232 0 99 22 171 67 221 48 53 70 64 155
78 4 0 29 -4 56 -10z"/>
</g>
</svg>
