<?xml version="1.0" standalone="no"?>
<!DOCTYPE svg PUBLIC "-//W3C//DTD SVG 20010904//EN"
 "http://www.w3.org/TR/2001/REC-SVG-20010904/DTD/svg10.dtd">
<svg version="1.0" xmlns="http://www.w3.org/2000/svg"
 width="666.000000pt" height="375.000000pt" viewBox="0 0 666.000000 375.000000"
 preserveAspectRatio="xMidYMid meet">

<g transform="translate(0.000000,375.000000) scale(0.100000,-0.100000)"
fill="#422709" stroke="none">
<path d="M1375 3078 c-2 -7 -15 -71 -29 -143 -13 -71 -27 -142 -31 -157 l-7
-28 205 0 204 0 22 118 c12 64 26 139 32 165 5 26 9 50 9 52 0 3 -90 5 -200 5
-152 0 -202 -3 -205 -12z"/>
<path d="M2237 3079 c-200 -26 -351 -147 -433 -348 l-29 -71 -61 0 -60 0 -12
-72 c-7 -40 -15 -83 -18 -95 -6 -22 -4 -23 55 -23 59 0 61 -1 56 -22 -3 -13
-21 -99 -39 -193 -19 -93 -62 -305 -96 -470 -34 -165 -64 -312 -67 -327 l-5
-28 171 0 c169 0 171 0 176 23 15 63 51 243 105 517 33 168 64 319 69 335 6
17 16 60 22 98 l12 67 132 0 132 0 17 83 c9 45 16 88 16 95 0 9 -32 12 -125
12 -93 0 -125 3 -125 13 0 27 29 120 45 143 43 66 155 79 330 39 l31 -7 13 69
c7 37 15 82 18 100 l5 31 -74 16 c-101 21 -181 25 -261 15z"/>
<path d="M5262 3013 c-6 -32 -20 -101 -31 -153 -12 -52 -26 -118 -31 -146
l-11 -50 -109 4 c-128 5 -172 -6 -283 -71 -128 -75 -288 -267 -346 -415 -83
-210 -59 -401 58 -470 40 -23 57 -27 126 -26 100 1 202 31 269 78 50 36 106
93 106 108 0 4 7 8 16 8 10 0 14 -6 10 -17 -3 -10 -10 -40 -16 -68 -5 -27 -12
-60 -15 -72 l-5 -23 168 0 169 0 21 103 c12 56 46 228 77 382 30 154 60 298
65 320 5 22 33 158 63 303 l54 262 -172 0 -172 0 -11 -57z"/>
<path d="M2810 2673 c-174 -26 -371 -153 -462 -296 -18 -29 -38 -58 -45 -64
-6 -7 -21 -39 -33 -70 -58 -156 -64 -287 -17 -379 66 -130 267 -206 465 -175
83 13 202 50 202 62 0 5 6 9 13 9 22 0 149 94 192 142 91 101 124 154 162 263
53 154 39 301 -37 388 -84 95 -272 146 -440 120z"/>
<path d="M3875 2665 c-101 -18 -278 -108 -322 -162 -7 -9 -32 -36 -56 -62
-101 -107 -179 -297 -179 -435 -1 -205 195 -341 460 -321 100 7 199 36 265 76
26 16 51 29 56 29 15 0 166 146 192 187 14 21 37 56 52 78 72 110 102 307 63
410 -61 163 -280 246 -531 200z"/>
<path d="M1192 2442 c-23 -119 -65 -327 -92 -462 -27 -135 -50 -253 -50 -262
0 -16 15 -18 168 -18 l169 0 10 53 c55 266 98 483 118 587 14 69 31 154 39
190 7 36 16 80 20 98 l6 32 -173 0 -172 0 -43 -218z"/>
<path d="M2115 1388 c40 -199 175 -405 356 -541 169 -127 392 -187 653 -174
191 9 381 59 551 144 56 29 212 130 221 144 3 5 11 9 18 9 12 0 34 -51 91
-218 l21 -64 37 179 c20 98 54 262 75 366 l39 187 -340 0 -341 0 43 -37 c24
-20 59 -47 78 -60 19 -13 50 -36 68 -50 l33 -27 -36 -29 c-69 -55 -197 -134
-269 -166 -39 -17 -74 -31 -78 -31 -3 0 -25 -9 -49 -19 -128 -59 -419 -82
-576 -46 -147 34 -304 123 -424 240 -43 41 -123 149 -143 191 -21 43 -37 44
-28 2z"/>
</g>
</svg>
